<?xml version="1.0" encoding="UTF-8"?>
<svg id="Layer_2" data-name="Layer 2" xmlns="http://www.w3.org/2000/svg" viewBox="0 0 279.01 90.35">
  <defs>
    <style>
      .cls-1 {
        fill: #000050;
      }

      .cls-2 {
        fill: #ffff9f;
      }
    </style>
  </defs>
  <g id="Layer_1-2" data-name="Layer 1">
    <g>
      <g>
        <circle class="cls-2" cx="254.19" cy="24.82" r="24.82"/>
        <path class="cls-1" d="m259.28,14.25c-.32-.03-.65-.06-.97-.06-2.41,0-4.78.97-6.9,2.88-1,.88-1.91,1.94-2.76,3.17-.15-4.58-.41-9.45-.85-14.41h-6.22c1.32,14,1.17,26.21.94,36.92h0v.06h6.16c.18-10.74,2.88-17.61,6.84-21.16,1.06-.97,2.11-1.38,3.08-1.29,4.87.53,4.11,15.73,3.73,22.45h6.16c.26-4.96.56-11-.15-16.29-1.03-7.6-4.08-11.71-9.07-12.27Z"/>
      </g>
      <g>
        <path class="cls-1" d="m68.12,88.77l-19.53-34.54c9.21-4.17,15.39-12.18,15.39-24.85,0-20.52-15.05-26.87-33.32-26.87H0v86.27h19.55v-31.03h10.26l16.46,31.03h21.85ZM19.55,17.99h9.53c10.25,0,15.76,2.87,15.76,11.38s-5.51,12.86-15.76,12.86h-9.53v-24.24Z"/>
        <path class="cls-1" d="m80.15,2.5h30.6c18.72,0,33.79,6.77,33.79,27.75s-15.49,29.25-33.79,29.25h-11.08v29.27h-19.52V2.5Zm29.47,41.51c10.7,0,15.78-4.8,15.78-13.76s-5.5-12.26-15.78-12.26h-9.95v26.02h9.95Z"/>
        <path class="cls-1" d="m154.53,46.12c0-28.61,18.1-45.21,41.22-45.21,10.93,0,19.91,5.23,25.74,10.97l-10.76,12.08c-4.12-3.82-8.75-6.19-14.98-6.19-12.26,0-21.2,10.41-21.2,27.69s8.95,28.03,21.97,28.03c6.22,0,11.35-3.06,15.54-7.62l10.75,11.81c-7.04,8.32-16.7,12.67-28.31,12.67-21.45,0-39.97-15.14-39.97-44.24Z"/>
      </g>
    </g>
  </g>
</svg>